PathFileType	3	(X/Y/Z)	D:\Jess\PFP\Labelled\PA09\20250730\SRRun01.trc
DataRate	CameraRate	NumFrames	NumMarkers	Units	OrigDataRate	OrigDataStartFrame	OrigNumFrames
250.0	250.0	5	37	mm	250.0	36250	2501
Frame#	Time	C7			T10			CLAV			LSHO			RSHO			LASIS			RASIS			LPSIS			RPSIS			LILCR			RILCR			LGTR			LTHI			LLTHI			LLEP			LMEP			LPSH			LLSH			LDSH			LLMAL			LMMAL			LTOE			L5TH			LHEE			RGTR			RTHI			RLTHI			RLEP			RMEP			RPSH			RLSH			RDSH			RLMAL			RMMAL			RTOE			R5TH			RHEE			
		X1	Y1	Z1	X2	Y2	Z2	X3	Y3	Z3	X4	Y4	Z4	X5	Y5	Z5	X6	Y6	Z6	X7	Y7	Z7	X8	Y8	Z8	X9	Y9	Z9	X10	Y10	Z10	X11	Y11	Z11	X12	Y12	Z12	X13	Y13	Z13	X14	Y14	Z14	X15	Y15	Z15	X16	Y16	Z16	X17	Y17	Z17	X18	Y18	Z18	X19	Y19	Z19	X20	Y20	Z20	X21	Y21	Z21	X22	Y22	Z22	X23	Y23	Z23	X24	Y24	Z24	X25	Y25	Z25	X26	Y26	Z26	X27	Y27	Z27	X28	Y28	Z28	X29	Y29	Z29	X30	Y30	Z30	X31	Y31	Z31	X32	Y32	Z32	X33	Y33	Z33	X34	Y34	Z34	X35	Y35	Z35	X36	Y36	Z36	X37	Y37	Z37	

1251	144.996	1208.337944149818	1408.697307928385	-309.7493106768902	1086.931982952317	1182.291576437251	-313.4836632562088	1321.011321122524	1286.974031853362	-339.558929359038	1224.970129039593	1396.991548882888	-477.1951501291384	1273.244032773616	1361.898529472978	-159.8457937153612	1181.149844205872	965.5175073720591	-440.3485307550415	1177.07070584883	952.0163808376108	-220.8777935542804	1038.025548002567	1022.507837602393	-346.44612815419	1039.307238502657	1019.667451805981	-314.8232797401616	1138.968141517795	1030.944825078623	-476.0172040645787	1159.969706783079	1014.999761195426	-202.4065957226406	1159.856492462037	872.8424727415728	-493.9464752815153	1281.288909280406	744.5453398106588	-435.826519239357	1233.301362132489	636.2954397645742	-479.0619484531651	1254.517476585092	523.7214770640754	-459.1655081443323	nan	nan	nan	1265.038576543806	420.4737644628677	-420.1757398763391	1144.716675338936	391.0906754755762	-475.6687786268415	1128.910968728255	277.6889941479741	-428.1848441007633	1023.974074210643	223.2281948655182	-461.8039292425942	nan	nan	nan	1123.705662842573	112.283734380294	-454.6196242358813	1091.73350903848	104.9232367329257	-495.2463999873577	941.3278199879802	236.0125658499695	-416.7144520109082	1091.291402865665	848.7245647305004	-177.7542927588638	1149.422394900101	666.81476418914	-267.0487875947728	1058.66641791279	612.2407437747046	-209.5146821647856	1003.977644556627	486.0697779117902	-235.5507641404688	nan	nan	nan	1013.738376588207	393.0287165170786	-296.1396062208386	892.0906203921751	327.395769282747	-246.5394489494209	898.5988815760181	229.4912827173617	-307.9568534799964	788.1305931490936	152.1860863611284	-290.668949249282	nan	nan	nan	914.1441914842733	59.56498151849139	-289.8829654288441	875.2860759654222	47.3923716730705	-251.7624836519861	714.4712606536552	159.5741168056857	-337.9162686373809	
1252	145	1209.029545586758	1411.464068624212	-309.6816752823484	1087.810684613595	1184.726817444742	-312.1993554245444	1321.519896640373	1290.098311927089	-340.5692517286283	1224.306784138469	1399.831186027646	-476.9289751785229	1275.389975763645	1364.838953451995	-160.6614318632151	1181.349045506704	968.7621827203365	-439.8869235831048	1177.636473748435	953.6995048750963	-220.8126949865414	1038.675648854961	1025.656160363917	-346.0102028383595	1040.168323697539	1022.675779873467	-314.4656435735647	1139.241891209188	1034.374049917448	-475.8132931698675	1160.954744890095	1017.101984200461	-202.4163690191706	1160.47265442922	876.9777039788082	-493.8411532089926	1281.854604268393	748.9504912155467	-434.8414669722694	1234.667665215133	640.1714369212963	-478.4503889921857	1255.907384039985	526.3156103145571	-458.6373160792063	nan	nan	nan	1269.353588154775	423.0374768365567	-418.9806967046407	1150.557097126279	388.6480786192108	-474.8986998591976	1139.032051550146	275.1043994348444	-426.5678404614085	1036.336466240163	216.2472487146175	-460.193003275737	nan	nan	nan	1140.56299889694	109.6745809963855	-452.4178575996136	1109.050128065511	100.7420798959021	-493.0204805847185	953.1551111274022	225.8372579220338	-415.187401698503	1090.67051050337	851.1056773440671	-177.8424664683094	1145.836719289729	668.2238216025476	-267.299904084358	1054.482047387835	615.1469894247307	-208.6812372925766	996.9521441194371	489.8306227839403	-234.4520937358628	nan	nan	nan	1006.18204767262	396.4384027225608	-294.561185331733	884.1240350570172	331.5736674014962	-245.3194657914075	890.8110637178346	233.1340961571471	-306.1765194538923	780.3808087463758	155.9167208061711	-289.1028725825831	nan	nan	nan	903.8209760310468	59.88100591014146	-289.1742257435647	864.5545453386161	48.00229109726149	-251.3830859471338	707.1138270076146	165.7468848286907	-336.4640318198298	
1253	145.004	1209.696218605496	1414.133796613976	-309.6477871301839	1088.696151490675	1187.067467198603	-311.0007164502763	1322.008239638537	1293.109348307774	-341.5285382439331	1223.727358434135	1402.546342115461	-476.6632457967949	1277.45590155982	1367.690984474398	-161.4880051427028	1181.54786839195	971.8470178008232	-439.5219623990807	1178.23742048021	955.285688036878	-220.8198020338345	1039.358619255362	1028.715507617336	-345.5314780030387	1041.050505181575	1025.607365877263	-314.0540059381152	1139.493779718443	1037.666205062373	-475.6463018324616	1161.966769465828	1019.120184686241	-202.4506769055854	1160.958211388543	880.9628518258146	-493.7614369155876	1282.367283212257	753.1501869779333	-433.9196970581917	1235.788628122925	643.8510405234681	-477.8053498203089	1257.056068345197	528.6822402069902	-458.1427294023188	nan	nan	nan	1273.466978605831	425.4634767926295	-417.8354541987301	1156.420898205037	386.1214264837179	-474.1264284209475	1149.214220707434	272.5778818547734	-424.941796616872	1048.961275645978	209.3972913783972	-458.5440125149747	nan	nan	nan	1157.495412138005	107.3793037224671	-450.1806923248387	1126.50274751119	96.8938290760339	-490.7496396670628	965.3940588403922	215.773913050955	-413.5986231459627	1090.132444838271	853.4175638168863	-177.8970353916572	1142.406404623531	669.5748157474138	-267.3461523492413	1050.428045834969	618.0237308441741	-207.7986255325106	990.1697496504314	493.5752839862083	-233.3244052498386	nan	nan	nan	998.848517879031	399.8509794355128	-293.0020486534098	876.44304274153	335.7366200507072	-244.0599068572839	883.2557453859918	236.7981176559985	-304.3611223525115	772.8142559085136	159.7379564880692	-287.4813837959416	nan	nan	nan	893.5890629165038	60.30650854242544	-288.4372812296593	853.9353731913482	48.73742347426913	-250.968327337501	700.0130935615297	172.0271892334923	-334.9266086994486	
1254	145.008	1210.339462718101	1416.694072382422	-309.6446241094317	1089.583168882807	1189.306398157124	-309.8925176624618	1322.477207632155	1295.993584599263	-342.441218569145	1223.219460867277	1405.127883924051	-476.398758536583	1279.44866978232	1370.439983551792	-162.3226574028744	1181.744658493779	974.7557668853107	-439.2487221011773	1178.865368178162	956.7690229642386	-220.8915728553677	1040.068062940577	1031.672363370135	-345.0059169511583	1041.945623698292	1028.449223936429	-313.5834864499898	1139.725078104719	1040.804499433078	-475.5057367509617	1163.014716640094	1021.042879856397	-202.5152442890726	1161.312873447684	884.7760973969995	-493.7088643604603	1282.827701483279	757.1218051248679	-433.0736643459236	1236.643363241814	647.3113515020227	-477.1241289356579	1257.967243263774	530.8149280035412	-457.6817218895479	nan	nan	nan	1277.386596046352	427.7509924065395	-416.7462450562127	1162.308346872395	383.5302697151336	-473.3523860946637	1159.447045070467	270.1259299230285	-423.3129468311558	1061.837818768799	202.7104730414364	-456.8613749742083	nan	nan	nan	1174.479890596731	105.4141617013799	-447.8997967892674	1144.064971852737	93.39762453785563	-488.4261060913469	978.0329660261607	205.8652448474666	-411.9592879502562	1089.669424605736	855.650160088536	-177.9114943429603	1139.13348075014	670.8592413402647	-267.1712699539605	1046.491767895422	620.8624225875418	-206.8782603089365	983.6433769108027	497.28437241941	-232.1789505148114	nan	nan	nan	991.7473858752692	403.2492792530182	-291.4808028519427	869.0544776357345	339.8693968763073	-242.7674690951744	875.9181957273082	240.4755700255014	-302.5319075836088	765.4093104336454	163.6519112741309	-285.8149352148697	nan	nan	nan	883.441860630455	60.86424912485962	-287.6758491215385	843.4258444369019	49.62117964916278	-250.5180668031518	693.143419985033	178.3968177268236	-333.3099396924583	
1255	145.012	1210.961000822037	1419.133066052266	-309.6690752232588	1090.466159958196	1191.43701376295	-308.8780203036831	1322.927945727902	1298.738276294436	-343.3119354500655	1222.770493484349	1407.566942545779	-476.1359275634629	1281.374477467297	1373.071779783941	-163.1628123970505	1181.937636903733	977.4740991803129	-439.0587771698529	1179.512009579948	958.1457939515273	-221.0182971859711	1040.796530577012	1034.513087208639	-344.4316514681002	1042.844988100037	1031.188091401257	-313.0517727495546	1139.938360091977	1043.772587688156	-475.3804291895501	1164.1055409366	1022.85977502855	-202.6143500308567	1161.540230485935	888.3957607748999	-493.683355745319	1283.23516744368	760.8409548826223	-432.3146718405308	1237.214130099801	650.5300951416837	-476.4072778104538	1258.647158576	532.7080002450867	-457.2549602233397	nan	nan	nan	1281.120788617227	429.9005106842811	-415.7180444520798	1168.217600512263	380.8948378686085	-472.5767699797228	1169.717626363111	267.7661322480297	-421.6868043710984	1074.950533112773	196.2200204976635	-455.1486232194068	nan	nan	nan	1191.489986013198	103.7956529367401	-445.5671256321983	1161.707689400922	90.27257806510299	-486.0421171277337	991.0536372207839	196.1545270309505	-410.2795963923836	1089.273884356261	857.794986078428	-177.8800599152074	1136.02013089096	672.0716477523454	-266.7672504879147	1042.664691581777	623.655515048486	-205.9326550846948	977.3872154838677	500.9389432890015	-231.0275427157095	nan	nan	nan	984.8879419221379	406.6167175617289	-290.0149883103519	861.962655642697	343.9590504300763	-241.4494593699111	868.7808924378215	244.1607440391627	-300.7109323207333	758.1426222552152	167.6618852064059	-284.1148532481523	nan	nan	nan	873.3720098975419	61.57830041858243	-286.8943427894189	833.0221229390743	50.6777417199653	-250.0326527891251	686.4751047752262	184.8388998394792	-331.6220894469257	
